<svg width="48" height="48" viewBox="0 0 48 48" fill="none" xmlns="http://www.w3.org/2000/svg">
<g id="Icon">
<g id="Iconography">
<g id="Group">
<g id="Layer_99">
<path id="Path" d="M43.8712 10.28V25.66C43.8829 27.5222 43.0725 29.2941 41.6577 30.5C40.5973 31.3814 39.266 31.8689 37.8888 31.88C37.5571 31.9098 37.2234 31.9098 36.8917 31.88L17.9473 28.46V7.50004L36.8917 4.14004C38.5939 3.84552 40.3388 4.32146 41.6577 5.44004C43.0659 6.65104 43.8747 8.41967 43.8712 10.28Z" fill="#6B7CFF"/>
<path id="Path_2" d="M13.959 8.19995V27.7599L11.9648 27.3999L9.9707 27.0599L8.97362 26.8799C7.86325 26.6981 6.8265 26.206 5.98239 25.4599C4.68896 24.2354 3.96578 22.5237 3.98824 20.7399V15.2199C3.93645 12.2284 6.04217 9.63501 8.97362 9.07995L13.959 8.19995Z" fill="#6B7CFF"/>
<path id="Path_3" d="M15.9536 28.12V39C15.9536 41.7614 13.7216 44 10.9682 44C8.21487 44 5.98284 41.7614 5.98284 39V26C5.95233 25.8213 5.95233 25.6387 5.98284 25.46C6.80475 26.1927 7.81213 26.684 8.8943 26.88L9.89138 27.06L11.8855 27.4L15.9536 28.12Z" fill="#6B7CFF"/>
</g>
</g>
</g>
</g>
</svg>
